<?xml version="1.0" encoding="UTF-8" standalone="no"?>
<svg
   viewBox="0 0 16 16"
   version="1.1"
   id="svg4"
   sodipodi:docname="sc_aligncenter.svg"
   inkscape:version="1.3.2 (091e20e, 2023-11-25)"
   xmlns:inkscape="http://www.inkscape.org/namespaces/inkscape"
   xmlns:sodipodi="http://sodipodi.sourceforge.net/DTD/sodipodi-0.dtd"
   xmlns:xlink="http://www.w3.org/1999/xlink"
   xmlns="http://www.w3.org/2000/svg"
   xmlns:svg="http://www.w3.org/2000/svg">
  <defs
     id="defs4">
    <linearGradient
       inkscape:collect="always"
       xlink:href="#b"
       id="linearGradient6"
       gradientUnits="userSpaceOnUse"
       x1="0"
       y1="8"
       x2="6.998668"
       y2="8" />
    <linearGradient
       inkscape:collect="always"
       xlink:href="#b"
       id="linearGradient7"
       gradientUnits="userSpaceOnUse"
       x1="0"
       y1="8"
       x2="6.998668"
       y2="8" />
  </defs>
  <sodipodi:namedview
     id="namedview4"
     pagecolor="#ffffff"
     bordercolor="#000000"
     borderopacity="0.25"
     inkscape:showpageshadow="2"
     inkscape:pageopacity="0.0"
     inkscape:pagecheckerboard="0"
     inkscape:deskcolor="#d1d1d1"
     inkscape:zoom="14.75"
     inkscape:cx="7.9661017"
     inkscape:cy="8"
     inkscape:window-width="1312"
     inkscape:window-height="449"
     inkscape:window-x="0"
     inkscape:window-y="39"
     inkscape:window-maximized="0"
     inkscape:current-layer="svg4" />
  <linearGradient
     id="a"
     gradientUnits="userSpaceOnUse"
     x1="0"
     x2="6.998668"
     xlink:href="#b"
     y1="8"
     y2="8" />
  <linearGradient
     id="b"
     gradientTransform="translate(-31.423729 -6.61017)"
     gradientUnits="userSpaceOnUse"
     x1="14"
     x2="13.79661"
     y1="22"
     y2="2.135593">
    <stop
       offset="0"
       stop-color="#0040dd"
       id="stop1" />
    <stop
       offset="1"
       stop-color="#007aff"
       id="stop2" />
  </linearGradient>
  <linearGradient
     id="c"
     gradientTransform="matrix(0,1.000071,-0.99880824,0,12.983287,6.992715)"
     gradientUnits="userSpaceOnUse"
     x1="9.006645"
     x2="2.007143"
     xlink:href="#b"
     y1="8.994006"
     y2="8.994006" />
  <linearGradient
     id="d"
     gradientTransform="matrix(0,-1.000071,-0.99880824,0,12.983287,9.007226)"
     gradientUnits="userSpaceOnUse"
     x1="2.007084"
     x2="10.006516"
     xlink:href="#b"
     y1="8.994006"
     y2="8.994006" />
  <g
     fill="#48484a"
     id="g3"
     transform="matrix(0.2251816,0,0,1,6.3341402,0)">
    <rect
       height="1"
       ry="0.47602999"
       width="8"
       x="1"
       y="9"
       id="rect2" />
    <rect
       height="1"
       ry="0.47602999"
       width="14"
       x="1"
       y="7"
       id="rect3" />
  </g>
  <g
     fill="url(#a)"
     stroke-linecap="round"
     stroke-linejoin="round"
     transform="translate(4.5423729)"
     id="g4"
     style="fill:url(#a)">
    <path
       d="m 3.4921875,9.9999999 c -0.1298868,0.00207 -0.25387,0.054606 -0.3457031,0.1464841 l -3.00000002,3 C -0.16829437,13.461481 0.05468111,13.999826 0.5,14 H 2 v 1.5 c 2.76e-5,0.276131 0.2238691,0.499972 0.5,0.5 h 2 C 4.7761309,15.999972 4.9999724,15.776131 5,15.5 V 14 h 1.5 c 0.4453189,-1.74e-4 0.6682943,-0.538519 0.3535156,-0.853516 l -3,-3 C 3.7578539,10.050778 3.6274889,9.9979276 3.4921875,9.9999999 Z"
       fill="url(#c)"
       id="path3"
       style="fill:url(#c)" />
    <path
       d="M 3.4921875,6 C 3.3623006,5.9979289 3.2383174,5.9453937 3.1464844,5.8535156 l -3.00000002,-3 C -0.16829369,2.5385183 0.05468157,2.0001747 0.5,2 H 2 V 0.49994136 c 2.76e-5,-0.27613094 0.2238691,-0.49997239 0.5,-0.5 h 2 c 0.2761309,2.761e-5 0.4999724,0.22386906 0.5,0.5 V 2 h 1.5 c 0.4453184,1.747e-4 0.6682937,0.5385183 0.3535156,0.8535156 l -3,3 C 3.7578539,5.9492215 3.6274889,6.0020722 3.4921875,6 Z"
       fill="url(#d)"
       id="path4"
       style="fill:url(#d)" />
    <use
       x="0"
       y="0"
       xlink:href="#path3"
       id="use5"
       style="fill:url(#linearGradient7)"
       transform="rotate(90,3.5,7.9999707)" />
    <use
       x="0"
       y="0"
       xlink:href="#path4"
       id="use6"
       style="fill:url(#linearGradient6)"
       transform="rotate(90,3.5,7.9999707)" />
  </g>
</svg>
