<?xml version="1.0" encoding="UTF-8" standalone="no"?>
<svg
   viewBox="0 0 16 16"
   version="1.1"
   id="svg3"
   sodipodi:docname="sc_aligncenter.svg"
   inkscape:version="1.3.2 (091e20e, 2023-11-25)"
   xmlns:inkscape="http://www.inkscape.org/namespaces/inkscape"
   xmlns:sodipodi="http://sodipodi.sourceforge.net/DTD/sodipodi-0.dtd"
   xmlns:xlink="http://www.w3.org/1999/xlink"
   xmlns="http://www.w3.org/2000/svg"
   xmlns:svg="http://www.w3.org/2000/svg">
  <defs
     id="defs3" />
  <sodipodi:namedview
     id="namedview3"
     pagecolor="#ffffff"
     bordercolor="#000000"
     borderopacity="0.25"
     inkscape:showpageshadow="2"
     inkscape:pageopacity="0.0"
     inkscape:pagecheckerboard="0"
     inkscape:deskcolor="#d1d1d1"
     inkscape:zoom="67.757518"
     inkscape:cx="7.9622161"
     inkscape:cy="8.6706246"
     inkscape:window-width="2056"
     inkscape:window-height="1176"
     inkscape:window-x="-19"
     inkscape:window-y="39"
     inkscape:window-maximized="0"
     inkscape:current-layer="svg3" />
  <g
     fill="#2e3436"
     id="g3"
     style="fill:#efefef;fill-opacity:1">
    <path
       d="M 7.0169492,7 V 9 H 8.9830508 V 7 Z"
       id="path1"
       style="stroke-width:0.404774;fill:#efefef;fill-opacity:1" />
    <path
       d="m10.988281 3.019531c0-.255922-.09771-.511769-.292969-.707031-.390521-.390524-1.023542-.390524-1.414062 0l-.291016.277344v-.585938-1c0-.55228479-.4477153-1.00000006-1.0000001-1-.5522847 0-1 .44771525-1 1v1 .585938l-.291016-.277344c-.39052-.390524-1.0235411-.390524-1.4140621 0-.1952576.195262-.2929688.451109-.2929688.707031s.097708.511771.2929688.707031l1.2910161 1.277344.673828.671875.02344.025391c.188261.193537.446792.30273.716794.302734.270003-.000004.528533-.109197.716797-.302734l.023437-.025391.673829-.671875 1.2910151-1.277344c.195261-.19526.292969-.451109.292969-.707031z"
       id="path2"
       style="fill:#efefef;fill-opacity:1" />
    <path
       d="m10.988281 12.988281c0 .255922-.09771.511769-.292969.707031-.390521.390524-1.023542.390524-1.414062 0l-.291016-.277344v.585938 1c0 .552285-.4477153 1-1.0000001 1-.5522847 0-1-.447715-1-1v-1-.585938l-.291016.277344c-.39052.390524-1.0235411.390524-1.4140621 0-.1952576-.195262-.2929688-.451109-.2929688-.707031s.097708-.511771.2929688-.707031l1.2910161-1.277344.673828-.671875.02344-.02539c.188261-.193537.446792-.30273.716794-.302734.270003.000004.528533.109197.716797.302734l.023437.02539.673829.671875 1.2910151 1.277344c.195261.19526.292969.451109.292969.707031z"
       id="path3"
       style="fill:#efefef;fill-opacity:1" />
    <use
       x="0"
       y="0"
       xlink:href="#path2"
       id="use3"
       transform="rotate(90,7.990234,8.003906)"
       style="fill:#efefef;fill-opacity:1" />
    <use
       x="0"
       y="0"
       xlink:href="#path3"
       id="use4"
       transform="rotate(90,7.990234,8.003906)"
       style="fill:#efefef;fill-opacity:1" />
  </g>
</svg>
