<?xml version="1.0" encoding="UTF-8" standalone="no"?>
<svg
   viewBox="0 0 16 16"
   version="1.1"
   id="svg3"
   sodipodi:docname="sc_alignenter.svg"
   inkscape:version="1.3.2 (091e20e, 2023-11-25)"
   xmlns:inkscape="http://www.inkscape.org/namespaces/inkscape"
   xmlns:sodipodi="http://sodipodi.sourceforge.net/DTD/sodipodi-0.dtd"
   xmlns:xlink="http://www.w3.org/1999/xlink"
   xmlns="http://www.w3.org/2000/svg"
   xmlns:svg="http://www.w3.org/2000/svg">
  <defs
     id="defs3" />
  <sodipodi:namedview
     id="namedview3"
     pagecolor="#ffffff"
     bordercolor="#000000"
     borderopacity="0.25"
     inkscape:showpageshadow="2"
     inkscape:pageopacity="0.0"
     inkscape:pagecheckerboard="0"
     inkscape:deskcolor="#d1d1d1"
     inkscape:zoom="14.75"
     inkscape:cx="7.9661017"
     inkscape:cy="13.389831"
     inkscape:window-width="1896"
     inkscape:window-height="870"
     inkscape:window-x="27"
     inkscape:window-y="163"
     inkscape:window-maximized="0"
     inkscape:current-layer="svg3" />
  <g
     fill="#fafafa"
     id="g2"
     transform="matrix(0.18644068,0,0,1,6.5084746,0)"
     style="fill:#3a3a38;fill-opacity:1">
    <rect
       height="1"
       ry="0.47602999"
       width="8"
       x="1"
       y="9"
       id="rect1"
       style="fill:#3a3a38;fill-opacity:1" />
    <rect
       height="1"
       ry="0.47602999"
       width="14"
       x="1"
       y="7"
       id="rect2"
       style="fill:#3a3a38;fill-opacity:1" />
  </g>
  <g
     fill="#1e8bcd"
     fill-rule="evenodd"
     id="g3"
     transform="translate(0.50847458,0.06779661)">
    <path
       d="M 4.0001771,13.484375 C 3.988673,13.938693 4.54046,14.171222 4.857599,13.845703 l 2.1445312,-2.148437 -0.00213,3.777343 C 6.98205,15.824786 7.241511,16 7.5,16 7.758489,16 8.01795,15.824786 8,15.474609 l -0.00177,-3.777343 2.144531,2.148437 c 0.317139,0.325519 0.868926,0.09299 0.857422,-0.361328 -0.0041,-0.130048 -0.05875,-0.25337 -0.152344,-0.34375 L 7.935724,10.224609 C 7.775075,10.05132 7.6692951,10.0016 7.5001771,10 7.3310591,10.0016 7.2252792,10.05132 7.0646302,10.224609 l -2.9121093,2.916016 c -0.093594,0.09038 -0.1482439,0.213702 -0.1523438,0.34375 z"
       id="path2" />
    <path
       d="M 4.0001771,2.515625 C 3.988673,2.061307 4.54046,1.828778 4.857599,2.154297 L 7.0021302,4.302734 7.0000002,0.525391 C 6.98205,0.175214 7.241511,0 7.5,0 7.758489,0 8.01795,0.175214 8,0.525391 L 7.99823,4.302734 10.142761,2.154297 c 0.317139,-0.325519 0.868926,-0.09299 0.857422,0.361328 -0.0041,0.130048 -0.05875,0.25337 -0.152344,0.34375 L 7.935724,5.775391 C 7.775075,5.94868 7.6692951,5.9984 7.5001771,6 7.3310591,5.9984 7.2252792,5.94868 7.0646302,5.775391 L 4.1525209,2.859375 C 4.0589269,2.768995 4.004277,2.645673 4.0001771,2.515625 Z"
       id="path3" />
    <use
       x="0"
       y="0"
       xlink:href="#path2"
       id="use3"
       transform="rotate(90,7.50018,8)" />
    <use
       x="0"
       y="0"
       xlink:href="#path3"
       id="use4"
       transform="rotate(90,7.50018,8)" />
  </g>
</svg>
