<?xml version="1.0" encoding="UTF-8" standalone="no"?>
<svg
   version="1.1"
   width="48"
   height="48"
   id="svg10"
   sodipodi:docname="glabels-merge.svg"
   inkscape:version="1.3.2 (091e20e, 2023-11-25)"
   xmlns:inkscape="http://www.inkscape.org/namespaces/inkscape"
   xmlns:sodipodi="http://sodipodi.sourceforge.net/DTD/sodipodi-0.dtd"
   xmlns="http://www.w3.org/2000/svg"
   xmlns:svg="http://www.w3.org/2000/svg">
  <defs
     id="defs10" />
  <sodipodi:namedview
     id="namedview10"
     pagecolor="#ffffff"
     bordercolor="#000000"
     borderopacity="0.25"
     inkscape:showpageshadow="2"
     inkscape:pageopacity="0.0"
     inkscape:pagecheckerboard="0"
     inkscape:deskcolor="#d1d1d1"
     inkscape:zoom="27.833957"
     inkscape:cx="20.280983"
     inkscape:cy="24.9695"
     inkscape:window-width="1896"
     inkscape:window-height="1021"
     inkscape:window-x="0"
     inkscape:window-y="39"
     inkscape:window-maximized="0"
     inkscape:current-layer="svg10" />
  <path
     id="rect1"
     style="fill:none;fill-opacity:1;stroke:#232629;stroke-width:1;stroke-opacity:1"
     d="M 6 8 L 6 39 L 30 39 L 30 35 L 22 35 L 22 32 L 19 32 L 19 29 L 16 29 L 16 19 L 30 19 L 30 8 L 6 8 z " />
  <line
     style="display:inline;stroke:#232629;stroke-width:1;stroke-opacity:1"
     x1="10"
     y1="13"
     x2="26"
     y2="13"
     id="line1" />
  <line
     style="display:inline;stroke:#232629;stroke-width:1;stroke-opacity:1"
     x1="10"
     y1="16"
     x2="26"
     y2="16"
     id="line2" />
  <line
     style="stroke:#232629;stroke-width:1;stroke-opacity:1"
     x1="10"
     y1="19"
     x2="26"
     y2="19"
     id="line3" />
  <line
     style="display:inline;stroke:#232629;stroke-width:1;stroke-opacity:1"
     x1="10"
     y1="22"
     x2="26"
     y2="22"
     id="line4" />
  <line
     style="display:inline;stroke:#232629;stroke-width:1.00001;stroke-opacity:1"
     x1="10"
     y1="25.000006"
     x2="26"
     y2="25.000006"
     id="line5" />
  <line
     style="display:inline;stroke:#232629;stroke-width:1;stroke-opacity:1"
     x1="10"
     y1="28"
     x2="26"
     y2="28"
     id="line6" />
  <line
     style="display:inline;stroke:#232629;stroke-width:1;stroke-opacity:1"
     x1="10"
     y1="31"
     x2="26"
     y2="31"
     id="line7" />
  <line
     style="display:inline;stroke:#232629;stroke-width:1;stroke-opacity:1"
     x1="10"
     y1="34"
     x2="26"
     y2="34"
     id="line8" />
  <path
     id="rect8"
     style="fill:none;fill-opacity:1;stroke:#232629;stroke-width:1;stroke-opacity:1"
     d="M 16 19 L 16 29 L 19 29 L 19 22 L 36 22 L 36 19 L 16 19 z " />
  <path
     id="rect9"
     style="fill:none;fill-opacity:1;stroke:#232629;stroke-width:1;stroke-opacity:1"
     d="M 19 22 L 19 32 L 22 32 L 22 25 L 39 25 L 39 22 L 19 22 z " />
  <rect
     style="fill:none;fill-opacity:1;stroke:#232629;stroke-width:1;stroke-opacity:1"
     width="20"
     height="10"
     x="22"
     y="25"
     id="rect10" />
</svg>
