<?xml version="1.0" encoding="UTF-8" standalone="no"?>
<svg
   version="1.1"
   width="32"
   height="32"
   id="svg10"
   sodipodi:docname="glabels-select-product.svg"
   inkscape:version="1.3.2 (091e20e, 2023-11-25)"
   xmlns:inkscape="http://www.inkscape.org/namespaces/inkscape"
   xmlns:sodipodi="http://sodipodi.sourceforge.net/DTD/sodipodi-0.dtd"
   xmlns="http://www.w3.org/2000/svg"
   xmlns:svg="http://www.w3.org/2000/svg">
  <defs
     id="defs10" />
  <sodipodi:namedview
     id="namedview10"
     pagecolor="#ffffff"
     bordercolor="#000000"
     borderopacity="0.25"
     inkscape:showpageshadow="2"
     inkscape:pageopacity="0.0"
     inkscape:pagecheckerboard="0"
     inkscape:deskcolor="#d1d1d1"
     inkscape:zoom="22.37863"
     inkscape:cx="15.930377"
     inkscape:cy="19.795671"
     inkscape:window-width="2056"
     inkscape:window-height="1171"
     inkscape:window-x="0"
     inkscape:window-y="39"
     inkscape:window-maximized="0"
     inkscape:current-layer="svg10" />
  <path
     id="rect1"
     style="fill:none;fill-opacity:1;stroke:#232629;stroke-width:1;stroke-opacity:1"
     d="M 4.5 2.5 L 4.5 20.5 L 9.5 20.5 L 9.5 11.5 L 13.5 11.5 L 13.5 6.5 L 18.5 6.5 L 18.5 2.5 L 4.5 2.5 z " />
  <path
     id="rect2"
     style="display:inline;fill:none;fill-opacity:1;stroke:#232629;stroke-width:1;stroke-opacity:1"
     d="m 13.5,6.5 v 5 h 5 l 5,5 v 8 h 4 v -18 z" />
  <path
     style="fill:none;fill-opacity:1;stroke:#232629;stroke-width:1;stroke-opacity:1"
     d="M 9.5,11.5 9.5,29.5 23.5,29.5 23.5,16.5 18.5,11.5 Z"
     id="path2" />
  <rect
     style="fill:#232629;fill-opacity:1;stroke:none"
     height="3"
     width="5"
     x="11"
     y="13"
     id="rect3" />
  <rect
     style="fill:#232629;fill-opacity:1;stroke:none"
     height="3"
     width="5"
     x="11"
     y="17"
     id="rect4" />
  <rect
     style="fill:#232629;fill-opacity:1;stroke:none"
     height="3"
     width="5"
     x="11"
     y="21"
     id="rect5" />
  <rect
     style="fill:#232629;fill-opacity:1;stroke:none"
     height="3"
     width="5"
     x="11"
     y="25"
     id="rect6" />
  <rect
     style="fill:#232629;fill-opacity:1;stroke:none;stroke-width:0.773195"
     height="3"
     width="1.7934918"
     x="17"
     y="13"
     id="rect7" />
  <rect
     style="fill:#232629;fill-opacity:1;stroke:none"
     height="3"
     width="5"
     x="17"
     y="17"
     id="rect8" />
  <rect
     style="fill:#232629;fill-opacity:1;stroke:none"
     height="3"
     width="5"
     x="17"
     y="21"
     id="rect9" />
  <rect
     style="fill:#232629;fill-opacity:1;stroke:none"
     height="3"
     width="5"
     x="17"
     y="25"
     id="rect10" />
  <path
     style="fill:none;fill-opacity:1;stroke:#232629;stroke-width:1;stroke-opacity:1;stroke-linejoin:bevel"
     d="M 23.5,16.5 18.5,11.5 18.5,16.5 Z"
     id="path10" />
</svg>
